# xmcd
#
# Track frame offsets:
#	150
#	4329
#	18709
#	36508
#	52045
#	82056
#	99729
#	115610
#	130350
#	145507
#	160968
#
# Disc length: 2548 seconds
#
# Revision: 0
# Processed by: cddbd v1.5.1PL0 Copyright (c) Steve Scherf et al.
# Submitted via: dBpowerAMP V4.0
#
DISCID=9709f20b
DTITLE=Joe Richardson Express - Non Stop
DYEAR=2004
DGENRE=Blues
TTITLE0=Welcome To Generica
TTITLE1=Backyard Revolution
TTITLE2=Killin' Ground
TTITLE3=It's Gotta Be You
TTITLE4=Midnight Fever
TTITLE5=Hear Um Cryin'
TTITLE6=Oh My Baby
TTITLE7=Longview Texas
TTITLE8=The Weatherman
TTITLE9=All Outta Tears
TTITLE10=Souls In Ruin
EXTD=Non Stop
EXTT0=
EXTT1=
EXTT2=
EXTT3=
EXTT4=
EXTT5=
EXTT6=
EXTT7=
EXTT8=
EXTT9=
EXTT10=
PLAYORDER=
